<svg width="1200" height="630" viewBox="0 0 1200 630" fill="none" xmlns="http://www.w3.org/2000/svg">
  <defs>
    <!-- Grid pattern background -->
    <pattern id="dot-grid" x="0" y="0" width="32" height="32" patternUnits="userSpaceOnUse">
      <circle cx="16" cy="16" r="1.2" fill="#CBD5E1" opacity="0.6"/>
    </pattern>
    <linearGradient id="bg-grad" x1="0" y1="0" x2="1200" y2="630" gradientUnits="userSpaceOnUse">
      <stop offset="0%" stop-color="#FFFFFF"/>
      <stop offset="100%" stop-color="#F8FAFC"/>
    </linearGradient>
    <filter id="shadow" x="-5%" y="-5%" width="110%" height="120%" filterUnits="userSpaceOnUse">
      <feDropShadow dx="0" dy="12" stdDeviation="24" flood-color="#0F172A" flood-opacity="0.08"/>
    </filter>
  </defs>

  <!-- Canvas Background -->
  <rect width="1200" height="630" fill="url(#bg-grad)"/>
  <rect width="1200" height="630" fill="url(#dot-grid)"/>

  <!-- Main Floating Card Window -->
  <g filter="url(#shadow)">
    <rect x="70" y="60" width="1060" height="490" rx="24" fill="#FFFFFF" stroke="#E2E8F0" stroke-width="2"/>
  </g>

  <!-- Top Navigation Header inside Card -->
  <!-- Favicon Logo Container -->
  <g transform="translate(110, 100)">
    <rect width="52" height="52" rx="12" fill="#0F172A"/>
    <g transform="translate(10, 10) scale(1.0)">
      <rect width="32" height="32" rx="3" fill="white"/>
      <path d="M13.7853 2.55742C13.3622 2.97851 13.2564 3.42592 13.2564 4.95237V6.79464L10.8233 10.216C8.46951 13.5321 8.39017 13.611 7.43808 13.611C6.82981 13.611 6.30087 13.7953 6.0364 14.0848C5.50747 14.6638 5.45457 16.006 5.90417 16.4534C6.14219 16.6903 5.98351 17.1114 5.11076 18.322C4.50249 19.1905 4 19.9537 4 20.059C4 20.1379 4.71406 20.1906 5.56036 20.1906H7.14717L9.15712 17.2956H13.2564V23.1645C13.2564 28.6124 13.2828 29.0861 13.7589 29.5072C14.5523 30.2441 15.8746 30.1388 16.6151 29.2967C17.2234 28.5861 17.2234 28.4808 17.2234 22.954V17.3219L21.5607 17.2429C25.3954 17.164 25.9508 17.1114 26.4533 16.6639C27.1409 16.0323 27.1938 14.6374 26.5327 14.0584C26.1095 13.69 25.369 13.611 21.64 13.611H17.2234V9.71595C17.2234 6.00509 17.2498 5.79455 17.8846 4.87341C18.7044 3.6891 18.7044 3.61014 17.9375 3.61014C17.5672 3.61014 17.0912 3.29432 16.7474 2.8206C16.0068 1.84683 14.6316 1.71524 13.7853 2.55742ZM13.1506 13.2426C13.0184 13.5847 11.934 13.7953 11.934 13.4795C11.934 13.4005 12.1985 12.9531 12.5423 12.532C13.0977 11.7688 13.1241 11.7425 13.2035 12.2951C13.2564 12.611 13.2299 13.032 13.1506 13.2426Z" fill="black"/>
      <path d="M22.883 2.29424C21.3491 2.89955 21.0317 4.79446 22.2218 6.00509C23.4119 7.16309 25.0516 6.92623 25.8186 5.45241C26.4004 4.34705 25.9508 2.97851 24.893 2.42583C24.0467 1.97842 23.7029 1.9521 22.883 2.29424Z" fill="black"/>
    </g>
  </g>
  <text x="178" y="135" font-family="Inter, system-ui, -apple-system, sans-serif" font-weight="700" font-size="24" fill="#0F172A" letter-spacing="-0.5">andikatp.</text>

  <!-- Status Pill Badge (Top Right) -->
  <g transform="translate(860, 108)">
    <rect width="230" height="36" rx="18" fill="#F1F5F9" stroke="#E2E8F0" stroke-width="1"/>
    <circle cx="20" cy="18" r="5" fill="#22C55E"/>
    <text x="34" y="23" font-family="Inter, system-ui, -apple-system, sans-serif" font-weight="600" font-size="13" fill="#334155" letter-spacing="0.5">AVAILABLE FOR WORK</text>
  </g>

  <!-- Main Headline -->
  <text x="110" y="250" font-family="Inter, system-ui, -apple-system, sans-serif" font-weight="800" font-size="64" fill="#0F172A" letter-spacing="-2">I'm Andika Tri Prasetya.</text>

  <!-- Subtitle -->
  <text x="110" y="305" font-family="Inter, system-ui, -apple-system, sans-serif" font-weight="400" font-size="26" fill="#475569" letter-spacing="-0.3">Fullstack Developer crafting high quality web applications</text>
  <text x="110" y="340" font-family="Inter, system-ui, -apple-system, sans-serif" font-weight="400" font-size="26" fill="#475569" letter-spacing="-0.3">with sleek design and rich interactive experiences.</text>

  <!-- Skill / Technology Badges -->
  <g transform="translate(110, 395)">
    <!-- Badge 1 -->
    <rect x="0" y="0" width="140" height="42" rx="12" fill="#F8FAFC" stroke="#E2E8F0" stroke-width="1.5"/>
    <text x="70" y="26" font-family="Inter, system-ui, -apple-system, sans-serif" font-weight="600" font-size="15" fill="#0F172A" text-anchor="middle">Fullstack Dev</text>

    <!-- Badge 2 -->
    <rect x="154" y="0" width="110" height="42" rx="12" fill="#F8FAFC" stroke="#E2E8F0" stroke-width="1.5"/>
    <text x="209" y="26" font-family="Inter, system-ui, -apple-system, sans-serif" font-weight="600" font-size="15" fill="#0F172A" text-anchor="middle">React.js</text>

    <!-- Badge 3 -->
    <rect x="278" y="0" width="130" height="42" rx="12" fill="#F8FAFC" stroke="#E2E8F0" stroke-width="1.5"/>
    <text x="343" y="26" font-family="Inter, system-ui, -apple-system, sans-serif" font-weight="600" font-size="15" fill="#0F172A" text-anchor="middle">TypeScript</text>

    <!-- Badge 4 -->
    <rect x="422" y="0" width="110" height="42" rx="12" fill="#F8FAFC" stroke="#E2E8F0" stroke-width="1.5"/>
    <text x="477" y="26" font-family="Inter, system-ui, -apple-system, sans-serif" font-weight="600" font-size="15" fill="#0F172A" text-anchor="middle">Node.js</text>

    <!-- Badge 5 -->
    <rect x="546" y="0" width="130" height="42" rx="12" fill="#F8FAFC" stroke="#E2E8F0" stroke-width="1.5"/>
    <text x="611" y="26" font-family="Inter, system-ui, -apple-system, sans-serif" font-weight="600" font-size="15" fill="#0F172A" text-anchor="middle">TailwindCSS</text>
  </g>

  <!-- Bottom Accent Marquee Ribbon -->
  <g transform="translate(0, 560)">
    <rect width="1200" height="70" fill="#FACC15"/>
    <text x="600" y="42" font-family="Inter, system-ui, -apple-system, sans-serif" font-weight="700" font-size="17" fill="#0F172A" letter-spacing="1.5" text-anchor="middle">
      BASED IN BANDUNG, INDONESIA   •   3+ YEARS OF EXPERIENCE   •   OPEN FOR FULLTIME ROLES
    </text>
  </g>
</svg>
